<?xml version="1.0" encoding="utf-8"?>
<!-- Generator: Adobe Illustrator 27.9.0, SVG Export Plug-In . SVG Version: 6.00 Build 0)  -->
<svg version="1.1" id="Layer_1" xmlns="http://www.w3.org/2000/svg" xmlns:xlink="http://www.w3.org/1999/xlink" x="0px" y="0px"
	 viewBox="0 0 430 932" style="enable-background:new 0 0 430 932;" xml:space="preserve">
<style type="text/css">
	.st0{fill:#EC671C;}
	.st1{fill:#DA5B24;}
	.st2{fill:#FF8A44;}
</style>
<path id="Rectangle_2" class="st0" d="M50.14,151.8h330c27.61,0,50,22.39,50,50v729l0,0h-430l0,0v-729
	C0.14,174.19,22.53,151.8,50.14,151.8z"/>
<path id="Path_23" class="st1" d="M0.14,555.8c0,0,107.09,20.66,178.9-60.99s157.39-112.14,249.85-118.04s8.85,643.31,8.85,643.31
	l-301-20.66l-241-35.41l82.63-415.1L0.14,555.8z"/>
<path id="Path_22" class="st2" d="M-9.82,930.8c0,0,372.81-46.46,414.12-308.11s47.22-133.78,47.22-133.78v484.94L-9.82,930.8z"/>
</svg>
